<svg
  xmlns="http://www.w3.org/2000/svg"
  viewBox="5 4 474 172"
  preserveAspectRatio="xMidYMid meet"
  role="img"
  aria-labelledby="kadett-title"
>
  <title id="kadett-title">Contorno vetorial de Chevrolet Kadett</title>
  <path
    d="M 387 106 L 381 107 L 372 111 L 368 114 L 364 118 L 362 121 L 358 130 L 357 135 L 357 142 L 359 150 L 362 156 L 365 159 L 365 160 L 367 162 L 368 162 L 371 165 L 376 168 L 382 170 L 392 171 L 393 170 L 397 170 L 403 168 L 411 163 L 414 160 L 417 156 L 421 147 L 422 143 L 422 134 L 420 127 L 417 121 L 415 118 L 410 113 L 407 111 L 398 107 L 393 106 Z M 383 110 L 396 110 L 402 112 L 408 116 L 413 121 L 415 124 L 418 131 L 419 139 L 418 146 L 416 151 L 412 157 L 408 161 L 399 166 L 395 167 L 384 167 L 380 166 L 374 163 L 371 160 L 370 160 L 368 158 L 368 157 L 365 154 L 361 145 L 361 132 L 364 124 L 367 120 L 371 116 L 377 112 Z M 383 117 L 378 119 L 375 121 L 372 124 L 370 127 L 367 134 L 367 143 L 370 150 L 377 157 L 384 160 L 394 160 L 400 158 L 403 156 L 408 151 L 411 145 L 411 141 L 412 140 L 412 137 L 411 136 L 411 132 L 408 126 L 402 120 L 395 117 Z M 384 120 L 394 120 L 399 122 L 404 126 L 404 127 L 406 129 L 408 133 L 409 139 L 408 144 L 406 148 L 400 154 L 397 156 L 394 157 L 385 157 L 380 155 L 377 153 L 373 149 L 370 142 L 370 135 L 373 128 L 378 123 L 381 121 Z M 90 102 L 84 104 L 77 108 L 71 114 L 69 117 L 66 123 L 65 127 L 65 141 L 67 147 L 70 152 L 73 155 L 73 156 L 75 158 L 76 158 L 79 161 L 85 164 L 92 166 L 101 166 L 109 164 L 116 160 L 124 152 L 128 144 L 129 140 L 129 128 L 128 124 L 126 119 L 122 113 L 118 109 L 114 106 L 110 104 L 104 102 Z M 92 105 L 102 105 L 106 106 L 115 111 L 120 116 L 122 119 L 125 125 L 126 130 L 126 138 L 124 145 L 121 150 L 113 158 L 107 161 L 99 163 L 95 163 L 90 162 L 84 160 L 78 156 L 72 149 L 69 143 L 68 139 L 68 129 L 69 125 L 73 117 L 79 111 L 82 109 L 88 106 Z M 92 112 L 86 114 L 83 116 L 78 121 L 75 127 L 74 131 L 74 137 L 77 145 L 81 150 L 82 150 L 84 152 L 90 155 L 94 155 L 95 156 L 98 156 L 99 155 L 103 155 L 106 154 L 111 151 L 114 148 L 116 145 L 119 138 L 119 130 L 117 124 L 115 121 L 110 116 L 105 113 L 101 112 Z M 93 115 L 100 115 L 104 116 L 109 120 L 110 120 L 114 125 L 116 131 L 116 137 L 113 144 L 108 149 L 105 151 L 102 152 L 91 152 L 85 149 L 81 145 L 79 142 L 77 136 L 77 132 L 78 128 L 80 124 L 86 118 Z M 468 44 L 467 41 L 437 42 L 387 19 L 368 12 L 362 11 L 337 9 L 260 9 L 234 11 L 224 13 L 215 17 L 204 24 L 198 29 L 195 30 L 153 59 L 139 61 L 116 63 L 82 68 L 60 73 L 43 78 L 26 84 L 22 88 L 18 97 L 14 102 L 10 111 L 11 116 L 14 117 L 16 119 L 16 133 L 17 139 L 19 141 L 35 143 L 44 143 L 45 144 L 53 144 L 54 142 L 54 138 L 58 121 L 60 115 L 62 111 L 65 107 L 70 102 L 73 100 L 79 97 L 87 95 L 104 95 L 110 96 L 123 102 L 130 109 L 135 118 L 137 124 L 138 129 L 138 134 L 139 135 L 139 140 L 140 142 L 142 143 L 144 142 L 348 142 L 351 121 L 354 114 L 356 111 L 359 108 L 366 104 L 371 103 L 392 102 L 413 102 L 418 104 L 423 109 L 427 117 L 429 127 L 431 133 L 439 133 L 462 130 L 469 128 L 470 126 L 470 113 L 473 110 L 473 105 L 472 103 L 470 101 L 467 100 L 465 98 L 465 59 L 463 55 L 463 52 L 464 50 L 466 48 Z M 356 107 L 353 110 L 350 115 L 348 121 L 346 132 L 346 137 L 345 139 L 144 140 L 142 138 L 143 135 L 206 134 L 302 134 L 329 133 L 332 131 L 347 110 L 351 106 Z M 299 109 L 298 122 L 296 131 L 234 132 L 161 131 L 160 127 L 159 109 L 161 107 L 297 106 Z M 299 83 L 298 103 L 278 104 L 168 105 L 159 104 L 159 89 L 160 82 L 162 76 L 167 75 L 230 73 L 286 72 L 296 73 L 298 78 Z M 464 45 L 462 49 L 460 51 L 459 54 L 462 59 L 462 101 L 468 103 L 470 105 L 470 108 L 467 112 L 466 126 L 463 127 L 456 128 L 441 129 L 440 130 L 433 129 L 432 127 L 431 120 L 429 114 L 426 108 L 422 103 L 421 103 L 419 101 L 414 99 L 396 99 L 371 100 L 366 101 L 362 103 L 352 103 L 348 104 L 346 106 L 346 107 L 343 110 L 338 118 L 332 126 L 328 130 L 309 131 L 300 130 L 300 121 L 301 108 L 303 106 L 334 103 L 302 102 L 302 83 L 300 75 L 300 72 L 345 71 L 408 71 L 427 69 L 365 68 L 298 68 L 297 64 L 297 17 L 295 35 L 294 70 L 237 70 L 195 71 L 168 73 L 163 72 L 164 65 L 162 66 L 160 72 L 145 74 L 127 74 L 101 76 L 63 80 L 61 81 L 62 83 L 74 82 L 86 80 L 126 77 L 145 76 L 158 77 L 158 81 L 156 89 L 155 105 L 140 105 L 141 108 L 156 109 L 157 113 L 158 125 L 157 132 L 152 133 L 143 133 L 141 131 L 140 128 L 139 120 L 138 117 L 134 109 L 128 102 L 127 102 L 124 99 L 116 95 L 110 93 L 104 92 L 87 92 L 78 94 L 70 98 L 61 107 L 56 117 L 54 124 L 52 137 L 50 141 L 44 141 L 25 139 L 20 137 L 19 134 L 19 118 L 16 115 L 15 115 L 13 113 L 13 111 L 24 90 L 27 87 L 31 85 L 64 75 L 87 70 L 116 66 L 154 62 L 203 28 L 206 27 L 209 24 L 217 19 L 221 17 L 227 15 L 233 14 L 259 12 L 338 12 L 356 13 L 364 14 L 374 17 L 384 21 L 437 45 Z M 24 134 L 42 136 L 48 135 L 48 133 Z M 460 122 L 449 122 L 438 126 L 453 125 L 454 124 L 460 124 Z M 54 108 L 18 109 L 18 111 Z M 429 104 L 460 104 L 432 102 Z M 59 102 L 49 102 L 48 103 L 36 103 L 36 105 Z M 33 87 L 31 90 L 31 94 L 29 101 L 27 103 L 22 103 L 22 105 L 31 104 L 32 101 L 34 89 Z M 460 63 L 452 64 L 450 81 L 451 92 L 453 93 L 457 93 L 459 91 L 456 91 L 452 88 L 453 76 L 455 65 Z M 186 50 L 181 50 L 179 51 L 176 56 L 175 59 L 179 56 L 179 55 L 182 52 L 185 53 L 185 62 L 183 64 L 180 64 L 177 66 L 186 65 L 187 58 L 187 52 Z M 443 47 L 443 49 L 449 53 L 453 55 L 457 55 L 456 53 L 454 53 Z M 304 18 L 304 21 L 303 22 L 304 61 L 307 64 L 323 64 L 412 61 L 415 60 L 418 57 L 418 52 L 413 48 L 387 34 L 385 34 L 383 32 L 365 24 L 352 20 L 334 17 L 306 17 Z M 307 20 L 334 20 L 347 22 L 356 24 L 367 28 L 392 40 L 412 51 L 415 54 L 414 57 L 412 58 L 325 61 L 307 60 L 306 46 Z M 375 36 L 373 36 L 373 47 L 374 48 L 374 55 L 376 54 Z M 292 19 L 290 17 L 258 17 L 240 18 L 230 20 L 219 25 L 213 29 L 194 44 L 193 44 L 191 47 L 194 47 L 211 34 L 220 28 L 230 23 L 240 21 L 256 20 L 289 21 L 289 46 L 287 62 L 280 63 L 232 63 L 194 67 L 274 66 L 291 64 L 292 44 Z"
    fill="currentColor"
    fill-rule="evenodd"
  />
</svg>
